<?xml version="1.0" standalone="no"?><!DOCTYPE svg PUBLIC "-//W3C//DTD SVG 1.1//EN" "http://www.w3.org/Graphics/SVG/1.1/DTD/svg11.dtd"><svg t="1780033981095" class="icon" viewBox="0 0 1024 1024" version="1.1" xmlns="http://www.w3.org/2000/svg" p-id="4118" xmlns:xlink="http://www.w3.org/1999/xlink" width="32" height="32"><path d="M513.92 573.568h-178.144l27.04-64.448c-8.608 1.44-17.216 3.616-25.952 6.976-82.688 31.584-83.968 127.616-41.696 154.816l3.04-7.264h55.424c19.296-4.768 40.416-10.56 56.288-16.384 36.672-13.568 75.776-40.224 104-73.696zM287.008 685.952a16.64 16.64 0 0 0-10.56 29.28l12.288-29.184a16.256 16.256 0 0 0-1.728-0.096zM704.096 737.216l-92.64-213.76c6.912 60.96-2.912 108.48-29.6 143.872a92.16 92.16 0 0 1-7.04 8.192l40.576 96.384c8.8 21.504 24.768 35.552 47.936 35.552 26.368 0 46.336-21.472 46.336-48.768 0-6.592-1.6-14.048-5.6-21.472z" fill="#6DB33F" p-id="4119"></path><path d="M263.68 732.288a37.952 37.952 0 0 1 6.176-63.456c-18.048-13.216-24.672-31.04-23.232-62.56a120.48 120.48 0 0 1 21.344-63.104c14.496-20.896 35.68-37.12 61.216-46.88 14.88-5.76 29.216-8.416 43.2-9.888l61.664-146.72 52 123.776c20.576-11.36 38.912-26.848 50.72-43.616a30.464 30.464 0 0 1 24.16-12.928l-64.576-149.024c-11.2-25.632-30.368-41.344-58.336-41.344h-4.8c-27.968 0-47.936 15.712-59.136 41.344L166.4 737.216c-4 8.256-6.4 15.68-6.4 23.136 0 26.432 19.968 47.104 45.536 47.104 20.8 0 37.568-11.584 45.568-32.224l16.928-40.096a36.48 36.48 0 0 1-4.352-2.88z" fill="#6DB33F" p-id="4120"></path><path d="M570.24 434.432a8.864 8.864 0 0 0-8.576-6.304 9.056 9.056 0 0 0-7.488 3.936c-14.752 20.992-36.576 38.624-59.84 51.104l31.456 74.944a11.84 11.84 0 0 1 0.448-0.608 3.456 3.456 0 0 1 2.88-1.6c2.4 0 4.704 2.432 3.328 5.216-0.96 1.92-1.92 3.84-2.944 5.76l2.816 6.72h-6.528c-22.24 38.304-57.504 71.392-93.056 90.048h123.84c3.072-2.816 5.888-5.856 8.32-9.12 44.8-59.52 26.112-152.448 5.344-220.096z" fill="#6DB33F" p-id="4121"></path><path d="M355.232 702.656c9.632 0.32 21.216 0.64 33.984 0.64 59.264 0 143.904-6.592 175.68-48.768 44.8-59.52 26.112-152.448 5.344-220.096a8.864 8.864 0 0 0-8.576-6.304 9.056 9.056 0 0 0-7.488 3.936c-23.872 33.952-66.24 59.2-103.488 67.904-40.768 9.664-76.288 1.6-113.824 16.16-85.568 32.672-83.936 134.4-37.12 157.376l2.816 1.632s69.024-13.728 107.36-27.84c42.368-15.68 88-48.864 116.32-89.76a3.456 3.456 0 0 1 2.88-1.6c2.4 0 4.704 2.4 3.36 5.184-21.696 44.256-61.632 83.104-101.568 103.52-17.44 8.96-52.576 21.12-76.928 29.12-4.864 1.6-3.84 8.768 1.28 8.96v-0.064zM300.096 713.056a15.936 15.936 0 0 1-12.704 6.144 16.64 16.64 0 0 1-13.12-27.104 15.904 15.904 0 0 1 12.704-6.144c3.744 0 7.52 1.216 10.72 3.712a16.96 16.96 0 0 1 2.4 23.392zM765.568 410.144c0-27.328 20.96-49.184 48.288-49.184 27.328 0 49.216 21.856 49.216 49.184V755.52c0 27.36-21.888 48.32-49.216 48.32s-48.32-20.96-48.32-48.32V410.144zM864 278.432c0 27.328-21.856 49.216-49.216 49.216A49.024 49.024 0 0 1 765.6 278.4c0-27.328 21.856-49.216 49.184-49.216C841.28 228.32 864 250.176 864 278.432z" fill="#6DB33F" p-id="4122"></path></svg>